<svg width="693" height="522" viewBox="0 0 693 522" fill="none" xmlns="http://www.w3.org/2000/svg">
<path d="M383.862 0.190836C283.959 3.00633 189.068 41.8745 96.7408 80.1581C69.6954 91.3842 40.2639 104.829 28.2145 131.517C8.6373 174.895 46.0261 223.438 43.5208 270.932C41.946 299.898 25.5661 326.084 21.0088 354.729C12.9441 405.133 44.0815 455.848 87.2206 483.084C130.36 510.32 183.162 517.586 234.151 517.55C285.14 517.514 336.058 510.821 387.011 512.778C444.598 515.045 502.59 528.371 559.305 518.135C616.021 507.899 673.082 463.495 671.173 405.897C669.98 369.713 646.12 337.251 644.665 301.079C642.649 250.138 678.069 207.249 672.283 154.96C668.418 119.826 651.393 76.5313 623.024 53.554C568.444 9.43664 449.06 -1.64639 383.862 0.190836Z" fill="#F3F7FF"/>
<path d="M407.615 374.974L331.942 331.286L391.151 297.106L348.692 272.59L310.921 294.398L195.188 227.578L263.917 187.898L266.649 189.473L200.64 227.59L310.897 291.249L348.668 269.44L396.603 297.118L337.394 331.298L407.591 371.824L495.384 321.145L544.345 349.408L504.534 372.397L551.097 399.287L572.202 387.107L574.946 388.681L551.121 402.437L499.082 372.385L538.893 349.408L495.396 324.295L407.615 374.974Z" fill="#B4C4E4"/>
<path d="M510.142 461.872L415.56 407.269L476.809 371.908L392.404 323.174L334.197 353.225L248.337 303.644L287.634 280.953L248.003 258.071L219.251 274.678L216.507 273.091L247.979 254.922L293.086 280.965L253.789 303.656L334.329 350.159L392.535 320.108L482.261 371.92L421.012 407.269L512.862 460.31L510.142 461.872Z" fill="#B4C4E4"/>
<path d="M137.399 303.25L89.7981 275.775L92.5181 274.201L137.375 300.101L176.422 277.553L392.142 402.103L441.914 373.375L498.916 406.29L530.483 388.061L533.215 389.648L498.94 409.44L441.926 376.525L392.154 405.252L176.446 280.703L137.399 303.25Z" fill="#B4C4E4"/>
<path d="M220.586 239.21L217.854 237.623L256.723 215.183L322.207 252.989L356.661 233.102L474.363 301.055L471.643 302.618L356.685 236.251L322.231 256.139L256.747 218.332L220.586 239.21Z" fill="#B4C4E4"/>
<path opacity="0.24" d="M334.161 319.75C334.352 320.767 334.352 321.81 334.161 322.828C333.398 325.214 330.212 325.691 327.671 325.739C313.176 326.007 298.77 328.071 284.783 331.882C281.43 332.789 277.839 333.982 275.847 336.845C273.855 339.709 274.737 344.636 278.137 345.363C273.261 345.955 268.461 347.067 263.821 348.68C262.58 348.967 261.486 349.696 260.743 350.732C259.276 353.38 262.712 356.041 265.599 356.959C277.159 360.694 289.459 360.837 301.664 360.956C307.438 360.956 314.226 360.55 317.387 355.707C318.378 354.18 318.926 352.283 320.322 351.102C321.303 350.382 322.419 349.866 323.603 349.587L341.928 343.968C344.136 343.15 346.468 342.719 348.823 342.691C351.543 342.834 354.072 344.039 356.602 345.077C365.631 348.672 375.428 349.904 385.067 348.656C387.345 353.428 389.839 358.558 394.324 361.457C397.987 363.843 402.473 364.392 406.803 364.917C416.347 366.11 426.058 367.195 435.435 365.096C439.384 364.213 443.786 362.066 444.359 358.057C444.991 353.464 440.219 350.147 436.092 348.012L427.74 343.657C426.161 343.007 424.785 341.944 423.756 340.58C421.919 337.609 423.875 333.648 426.536 331.37C428.669 329.557 431.212 328.292 433.944 327.683C438.012 326.776 442.295 327.397 446.423 327.218C450.551 327.039 455.12 325.75 457.399 322.243C457.771 321.757 457.942 321.146 457.876 320.537C457.673 319.92 457.248 319.402 456.683 319.082C447.461 312.627 435.459 312.15 424.209 311.923L372.409 310.826C363.867 310.647 355.277 310.73 346.747 310.289C340.15 309.883 333.66 311.255 334.161 319.75Z" fill="#7BA5F8"/>
<path d="M71.7833 263.452L43.1511 183.139L130.825 177.174L104.949 268.116C104.949 268.116 82.7112 283.804 71.7833 263.452Z" fill="url(#paint0_linear)"/>
<path d="M552.816 380.486L524.183 300.161L611.845 294.196L585.981 385.138C585.981 385.138 563.755 400.826 552.816 380.486Z" fill="url(#paint1_linear)"/>
<path d="M487.462 444.276L458.771 363.986L546.445 358.021L520.628 448.916C520.628 448.916 498.39 464.628 487.462 444.276Z" fill="url(#paint2_linear)"/>
<path d="M198.397 262.795L169.765 182.482L257.427 176.517L231.61 267.412C231.61 267.412 209.349 283.148 198.397 262.795Z" fill="url(#paint3_linear)"/>
<path d="M252.989 178.331L224.297 98.0056L311.971 92.0406L286.155 182.936C286.155 182.936 263.917 198.671 252.989 178.331Z" fill="url(#paint4_linear)"/>
<path d="M319.082 329.73C319.114 323.82 310.845 318.984 300.613 318.928C290.381 318.873 282.06 323.619 282.028 329.529C281.996 335.439 290.265 340.275 300.497 340.33C310.73 340.386 319.05 335.64 319.082 329.73Z" fill="#F29C5A"/>
<path d="M319.082 326.371C319.114 320.461 310.845 315.625 300.613 315.57C290.381 315.514 282.06 320.261 282.028 326.171C281.996 332.081 290.265 336.917 300.497 336.972C310.73 337.027 319.05 332.281 319.082 326.371Z" fill="#FFC91F"/>
<path d="M314.859 326.085C314.884 321.499 308.463 317.747 300.517 317.704C292.571 317.661 286.109 321.343 286.084 325.929C286.059 330.515 292.481 334.267 300.427 334.31C308.373 334.353 314.834 330.67 314.859 326.085Z" fill="#F29C5A"/>
<path d="M314.38 323.264C314.412 317.354 306.143 312.518 295.911 312.463C285.679 312.408 277.358 317.154 277.326 323.064C277.294 328.974 285.563 333.81 295.795 333.865C306.028 333.92 314.348 329.174 314.38 323.264Z" fill="#F29C5A"/>
<path d="M314.38 319.906C314.412 313.996 306.143 309.16 295.911 309.104C285.679 309.049 277.358 313.795 277.326 319.705C277.294 325.615 285.563 330.451 295.795 330.507C306.028 330.562 314.348 325.816 314.38 319.906Z" fill="#FFC91F"/>
<path d="M310.157 319.619C310.182 315.034 303.761 311.281 295.815 311.238C287.869 311.195 281.407 314.878 281.382 319.464C281.358 324.049 287.779 327.802 295.725 327.845C303.671 327.888 310.132 324.205 310.157 319.619Z" fill="#F29C5A"/>
<path d="M322.045 313.093C322.077 307.183 313.809 302.347 303.576 302.291C293.344 302.236 285.023 306.982 284.991 312.892C284.959 318.802 293.228 323.638 303.46 323.694C313.693 323.749 322.014 319.003 322.045 313.093Z" fill="#F29C5A"/>
<path d="M322.034 309.746C322.066 303.836 313.797 299 303.565 298.945C293.333 298.889 285.012 303.635 284.98 309.545C284.948 315.455 293.217 320.291 303.449 320.347C313.681 320.402 322.002 315.656 322.034 309.746Z" fill="#FFC91F"/>
<path d="M317.822 309.46C317.847 304.874 311.425 301.122 303.479 301.079C295.533 301.036 289.072 304.718 289.047 309.304C289.022 313.89 295.443 317.642 303.389 317.685C311.335 317.728 317.797 314.046 317.822 309.46Z" fill="#F29C5A"/>
<path d="M461.649 318.003C461.708 312.093 453.461 307.219 443.228 307.116C432.996 307.014 424.653 311.722 424.594 317.632C424.535 323.542 432.782 328.417 443.014 328.519C453.247 328.621 461.59 323.913 461.649 318.003Z" fill="#F29C5A"/>
<path d="M459.628 313.071C459.66 307.161 451.391 302.325 441.159 302.269C430.927 302.214 422.606 306.96 422.574 312.87C422.542 318.78 430.811 323.616 441.043 323.671C451.275 323.727 459.596 318.981 459.628 313.071Z" fill="#FFC91F"/>
<path d="M455.404 312.784C455.429 308.199 449.007 304.446 441.062 304.403C433.116 304.36 426.654 308.043 426.629 312.629C426.604 317.215 433.026 320.967 440.972 321.01C448.918 321.053 455.379 317.37 455.404 312.784Z" fill="#F29C5A"/>
<path d="M469.506 310.725C469.565 304.814 461.318 299.94 451.085 299.838C440.853 299.736 432.51 304.444 432.451 310.354C432.392 316.264 440.639 321.138 450.871 321.241C461.104 321.343 469.446 316.635 469.506 310.725Z" fill="#F29C5A"/>
<path d="M467.448 305.838C467.48 299.928 459.211 295.092 448.979 295.036C438.747 294.981 430.426 299.727 430.394 305.637C430.362 311.547 438.631 316.383 448.863 316.439C459.096 316.494 467.416 311.748 467.448 305.838Z" fill="#FFC91F"/>
<path d="M463.236 305.552C463.261 300.966 456.84 297.214 448.894 297.171C440.948 297.128 434.486 300.81 434.461 305.396C434.437 309.982 440.858 313.734 448.804 313.777C456.75 313.82 463.212 310.137 463.236 305.552Z" fill="#F29C5A"/>
<path d="M462.685 299.06C462.744 293.15 454.497 288.276 444.265 288.174C434.032 288.071 425.69 292.78 425.63 298.69C425.571 304.6 433.818 309.474 444.051 309.576C454.283 309.679 462.626 304.971 462.685 299.06Z" fill="#F29C5A"/>
<path d="M460.659 294.226C460.691 288.316 452.422 283.48 442.19 283.425C431.958 283.37 423.637 288.116 423.605 294.026C423.573 299.936 431.842 304.772 442.074 304.827C452.306 304.883 460.627 300.136 460.659 294.226Z" fill="#FFC91F"/>
<path d="M456.436 293.94C456.46 289.355 450.039 285.602 442.093 285.559C434.147 285.516 427.685 289.199 427.661 293.785C427.636 298.37 434.057 302.123 442.003 302.166C449.949 302.209 456.411 298.526 456.436 293.94Z" fill="#F29C5A"/>
<path d="M335.408 270.907C335.44 264.997 327.171 260.161 316.939 260.105C306.707 260.05 298.386 264.796 298.354 270.706C298.322 276.616 306.591 281.452 316.823 281.508C327.056 281.563 335.376 276.817 335.408 270.907Z" fill="#F29C5A"/>
<path d="M335.42 267.56C335.452 261.65 327.183 256.814 316.951 256.758C306.719 256.703 298.398 261.449 298.366 267.359C298.334 273.269 306.603 278.105 316.835 278.161C327.067 278.216 335.388 273.47 335.42 267.56Z" fill="#FFC91F"/>
<path d="M331.197 267.273C331.221 262.688 324.8 258.935 316.854 258.892C308.908 258.849 302.446 262.532 302.422 267.118C302.397 271.703 308.818 275.456 316.764 275.499C324.71 275.542 331.172 271.859 331.197 267.273Z" fill="#F29C5A"/>
<path d="M431.882 355.1C431.914 349.19 423.645 344.354 413.413 344.299C403.181 344.244 394.86 348.99 394.828 354.9C394.796 360.81 403.065 365.646 413.297 365.701C423.53 365.757 431.85 361.011 431.882 355.1Z" fill="#F29C5A"/>
<path d="M431.894 351.754C431.926 345.844 423.657 341.008 413.425 340.953C403.193 340.897 394.872 345.644 394.84 351.554C394.808 357.464 403.077 362.3 413.309 362.355C423.542 362.41 431.862 357.664 431.894 351.754Z" fill="#FFC91F"/>
<path d="M427.671 351.468C427.695 346.882 421.274 343.13 413.328 343.087C405.382 343.044 398.921 346.726 398.896 351.312C398.871 355.898 405.292 359.65 413.238 359.693C421.184 359.736 427.646 356.053 427.671 351.468Z" fill="#F29C5A"/>
<path d="M403.153 330.451C388.896 338.682 365.704 338.635 351.352 330.355C344.194 326.216 340.615 320.811 340.544 315.383C340.544 313.343 341.116 284.818 340.914 285.796C340.198 289.376 346.735 303.012 351.185 300.447C365.442 292.215 388.634 292.251 402.986 300.542C406.565 302.63 411.814 284.89 413.615 287.419C413.615 287.419 413.281 311.434 413.615 313.438C414.653 319.559 411.17 325.81 403.153 330.451Z" fill="url(#paint5_linear)"/>
<path d="M403.153 330.451C388.896 338.682 365.704 338.635 351.352 330.355C344.194 326.216 340.615 320.811 340.544 315.383C340.544 313.343 341.116 284.818 340.914 285.796C340.198 289.376 346.735 303.012 351.185 300.447C365.442 292.215 388.634 292.251 402.986 300.542C406.565 302.63 411.814 284.89 413.615 287.419C413.615 287.419 413.281 311.434 413.615 313.438C414.653 319.559 411.17 325.81 403.153 330.451Z" fill="url(#paint6_linear)"/>
<path d="M413.793 288.638C413.856 276.956 397.51 267.397 377.282 267.288C357.055 267.179 340.606 276.56 340.543 288.241C340.48 299.923 356.826 309.482 377.053 309.591C397.281 309.701 413.729 300.32 413.793 288.638Z" fill="url(#paint7_linear)"/>
<path d="M413.771 304.241C414.105 309.872 410.562 315.586 403.141 319.881C388.825 328.101 365.693 328.053 351.341 319.797C343.837 315.467 340.258 309.752 340.604 304.073C341.057 309.168 344.648 314.166 351.341 318.008C365.657 326.359 388.873 326.359 403.141 318.127C409.774 314.25 413.353 309.287 413.771 304.241Z" fill="#4E74FF"/>
<path d="M405.646 288.293C405.694 279.286 393.086 271.916 377.484 271.832C361.882 271.747 349.194 278.98 349.146 287.987C349.097 296.994 361.705 304.363 377.307 304.448C392.909 304.532 405.597 297.299 405.646 288.293Z" fill="url(#paint8_linear)"/>
<path d="M378.386 140.4L340.52 209.964H361.064L378.386 140.4Z" fill="url(#paint9_linear)"/>
<path d="M377.707 278.359L340.52 209.964H361.064L377.707 278.359Z" fill="url(#paint10_linear)"/>
<path d="M415.669 210.262L378.387 140.4L361.065 209.964L415.669 210.262Z" fill="url(#paint11_linear)"/>
<path d="M377.707 278.359L415.669 210.262L361.065 209.964L377.707 278.359Z" fill="url(#paint12_linear)"/>
<path d="M583.226 400.886C576.593 404.715 565.796 404.691 559.127 400.886C555.787 398.965 554.116 396.436 554.104 393.919C554.104 392.976 554.367 379.71 554.271 380.163C553.937 381.833 556.98 388.168 559.044 386.975C565.677 383.146 576.461 383.17 583.13 386.975C584.812 387.942 587.234 379.698 588.081 380.891C588.081 380.891 587.914 392.058 588.081 392.988C588.57 395.816 586.948 398.726 583.226 400.886Z" fill="url(#paint13_linear)"/>
<path d="M583.226 400.886C576.593 404.715 565.796 404.691 559.127 400.886C555.787 398.965 554.116 396.436 554.104 393.919C554.104 392.976 554.367 379.71 554.271 380.163C553.937 381.833 556.98 388.168 559.044 386.975C565.677 383.146 576.461 383.17 583.13 386.975C584.812 387.942 587.234 379.698 588.081 380.891C588.081 380.891 587.914 392.058 588.081 392.988C588.57 395.816 586.948 398.726 583.226 400.886Z" fill="url(#paint14_linear)"/>
<path d="M588.161 381.424C588.191 375.988 580.587 371.54 571.179 371.489C561.77 371.438 554.119 375.804 554.089 381.239C554.06 386.675 561.663 391.123 571.072 391.174C580.481 391.225 588.132 386.859 588.161 381.424Z" fill="url(#paint15_linear)"/>
<path d="M588.164 388.693C588.32 391.318 586.673 393.966 583.214 395.971C576.58 399.788 565.796 399.764 559.127 395.971C555.631 393.943 553.961 391.294 554.116 388.658C554.331 391.044 556.001 393.346 559.127 395.136C565.796 398.989 576.58 399.013 583.214 395.136C586.339 393.346 587.974 391.044 588.164 388.693Z" fill="#4E74FF"/>
<path d="M584.369 381.259C584.391 377.069 578.529 373.64 571.275 373.6C564.021 373.561 558.122 376.926 558.099 381.117C558.076 385.307 563.938 388.736 571.193 388.775C578.447 388.815 584.346 385.449 584.369 381.259Z" fill="url(#paint16_linear)"/>
<path d="M516.011 465.32C509.378 469.15 498.593 469.126 491.912 465.32C488.584 463.388 486.902 460.87 486.89 458.353C486.89 457.411 487.152 444.144 487.069 444.598C486.735 446.268 489.777 452.603 491.841 451.41C498.474 447.58 509.259 447.604 515.94 451.41C517.622 452.376 520.044 444.121 520.879 445.326C520.879 445.326 520.724 456.492 520.879 457.423C521.368 460.25 519.745 463.161 516.011 465.32Z" fill="url(#paint17_linear)"/>
<path d="M516.011 465.32C509.378 469.15 498.593 469.126 491.912 465.32C488.584 463.388 486.902 460.87 486.89 458.353C486.89 457.411 487.152 444.144 487.069 444.598C486.735 446.268 489.777 452.603 491.841 451.41C498.474 447.58 509.259 447.604 515.94 451.41C517.622 452.376 520.044 444.121 520.879 445.326C520.879 445.326 520.724 456.492 520.879 457.423C521.368 460.25 519.745 463.161 516.011 465.32Z" fill="url(#paint18_linear)"/>
<path d="M520.952 445.872C520.982 440.436 513.378 435.988 503.97 435.937C494.561 435.886 486.91 440.252 486.88 445.687C486.851 451.123 494.454 455.571 503.863 455.622C513.272 455.672 520.923 451.307 520.952 445.872Z" fill="url(#paint19_linear)"/>
<path d="M520.95 453.128C521.105 455.741 519.459 458.401 516.011 460.405C509.378 464.223 498.593 464.199 491.912 460.405C488.429 458.389 486.759 455.741 486.914 453.092C487.128 455.478 488.799 457.793 491.912 459.582C498.593 463.436 509.378 463.459 516.011 459.582C519.089 457.781 520.723 455.478 520.95 453.128Z" fill="#4E74FF"/>
<path d="M517.159 445.707C517.182 441.516 511.319 438.088 504.065 438.048C496.811 438.009 490.912 441.374 490.889 445.565C490.867 449.755 496.729 453.184 503.983 453.223C511.237 453.262 517.136 449.897 517.159 445.707Z" fill="url(#paint20_linear)"/>
<path d="M283.422 193.064C276.789 196.894 266.004 196.87 259.336 193.064C255.995 191.144 254.313 188.614 254.301 186.097C254.301 185.155 254.575 171.888 254.48 172.342C254.146 174.012 257.188 180.347 259.252 179.154C265.885 175.324 276.67 175.348 283.351 179.154C285.033 180.12 287.455 171.877 288.29 173.07C288.29 173.07 288.135 184.236 288.29 185.167C288.779 187.994 287.156 190.905 283.422 193.064Z" fill="url(#paint21_linear)"/>
<path d="M283.422 193.064C276.789 196.894 266.004 196.87 259.336 193.064C255.995 191.144 254.313 188.614 254.301 186.097C254.301 185.155 254.575 171.888 254.48 172.342C254.146 174.012 257.188 180.347 259.252 179.154C265.885 175.324 276.67 175.348 283.351 179.154C285.033 180.12 287.455 171.877 288.29 173.07C288.29 173.07 288.135 184.236 288.29 185.167C288.779 187.994 287.156 190.905 283.422 193.064Z" fill="url(#paint22_linear)"/>
<path d="M288.374 173.619C288.403 168.183 280.8 163.735 271.391 163.685C261.983 163.634 254.332 167.999 254.302 173.435C254.273 178.87 261.876 183.318 271.285 183.369C280.694 183.42 288.345 179.055 288.374 173.619Z" fill="url(#paint23_linear)"/>
<path d="M288.362 180.872C288.517 183.497 286.871 186.145 283.423 188.149C276.79 191.967 266.005 191.943 259.324 188.149C255.841 186.121 254.17 183.473 254.326 180.836C254.54 183.222 256.211 185.525 259.324 187.314C266.005 191.168 276.79 191.191 283.423 187.374C286.501 185.525 288.171 183.222 288.362 180.872Z" fill="#4E74FF"/>
<path d="M284.581 173.454C284.603 169.263 278.741 165.835 271.487 165.795C264.233 165.756 258.334 169.121 258.311 173.312C258.288 177.502 264.151 180.931 271.405 180.97C278.659 181.009 284.558 177.644 284.581 173.454Z" fill="url(#paint24_linear)"/>
<path d="M228.246 281.12C221.613 284.95 210.816 284.926 204.147 281.12C200.807 279.199 199.137 276.682 199.113 274.165C199.113 273.21 199.387 259.944 199.292 260.398C198.958 262.068 202 268.415 204.064 267.21C210.697 263.38 221.482 263.404 228.151 267.21C229.833 268.176 232.255 259.932 233.102 261.125C233.102 261.125 232.935 272.304 233.102 273.234C233.591 276.05 232.016 278.973 228.246 281.12Z" fill="url(#paint25_linear)"/>
<path d="M228.246 281.12C221.613 284.95 210.816 284.926 204.147 281.12C200.807 279.199 199.137 276.682 199.113 274.165C199.113 273.21 199.387 259.944 199.292 260.398C198.958 262.068 202 268.415 204.064 267.21C210.697 263.38 221.482 263.404 228.151 267.21C229.833 268.176 232.255 259.932 233.102 261.125C233.102 261.125 232.935 272.304 233.102 273.234C233.591 276.05 232.016 278.973 228.246 281.12Z" fill="url(#paint26_linear)"/>
<path d="M233.184 261.673C233.213 256.237 225.61 251.789 216.201 251.739C206.792 251.688 199.141 256.053 199.112 261.489C199.082 266.924 206.686 271.372 216.094 271.423C225.503 271.474 233.154 267.109 233.184 261.673Z" fill="url(#paint27_linear)"/>
<path d="M233.209 268.928C233.364 271.552 231.717 274.213 228.258 276.205C221.625 280.023 210.84 280.011 204.171 276.205C200.675 274.189 199.005 271.528 199.16 268.892C199.375 271.278 201.045 273.58 204.171 275.37C210.84 279.235 221.625 279.247 228.258 275.43C231.324 273.592 232.982 271.278 233.209 268.928Z" fill="#4E74FF"/>
<path d="M229.391 261.508C229.414 257.317 223.551 253.889 216.297 253.849C209.043 253.81 203.144 257.175 203.121 261.366C203.099 265.556 208.961 268.985 216.215 269.024C223.469 269.063 229.368 265.698 229.391 261.508Z" fill="url(#paint28_linear)"/>
<path d="M101.429 284.639C94.808 288.469 84.0113 288.457 77.3423 284.639C74.0019 282.707 72.3317 280.189 72.3079 277.672C72.3079 276.73 72.5823 263.463 72.4868 263.917C72.1528 265.587 75.1949 271.922 77.2588 270.729C83.892 266.899 94.6887 266.911 101.358 270.729C103.04 271.707 105.462 263.451 106.309 264.656C106.309 264.656 106.142 275.823 106.309 276.753C106.75 279.581 105.163 282.492 101.429 284.639Z" fill="url(#paint29_linear)"/>
<path d="M101.429 284.639C94.808 288.469 84.0113 288.457 77.3423 284.639C74.0019 282.707 72.3317 280.189 72.3079 277.672C72.3079 276.73 72.5823 263.463 72.4868 263.917C72.1528 265.587 75.1949 271.922 77.2588 270.729C83.892 266.899 94.6887 266.911 101.358 270.729C103.04 271.707 105.462 263.451 106.309 264.656C106.309 264.656 106.142 275.823 106.309 276.753C106.75 279.581 105.163 282.492 101.429 284.639Z" fill="url(#paint30_linear)"/>
<path d="M106.385 265.198C106.414 259.762 98.8106 255.314 89.4019 255.263C79.9932 255.212 72.3422 259.577 72.3128 265.013C72.2834 270.449 79.8867 274.897 89.2954 274.947C98.7041 274.998 106.355 270.633 106.385 265.198Z" fill="url(#paint31_linear)"/>
<path d="M106.381 272.459C106.536 275.071 104.877 277.732 101.43 279.724C94.7965 283.554 84.0117 283.53 77.3428 279.724C73.8473 277.708 72.1771 275.048 72.3321 272.411C72.5469 274.797 74.2171 277.111 77.3428 278.889C84.0117 282.754 94.7965 282.766 101.43 278.949C104.519 277.111 106.178 274.797 106.381 272.459Z" fill="#4E74FF"/>
<path d="M340.68 285.48L278.059 110.108L469.453 97.2353L413.676 289.147C411.97 313.029 343.735 320.706 340.68 285.48Z" fill="url(#paint32_linear)"/>
<defs>
<linearGradient id="paint0_linear" x1="87.0326" y1="182.36" x2="77.6152" y2="298.504" gradientUnits="userSpaceOnUse">
<stop stop-color="white" stop-opacity="0"/>
<stop offset="0.637889" stop-color="#B7E5FF" stop-opacity="0.55"/>
</linearGradient>
<linearGradient id="paint1_linear" x1="568.059" y1="299.382" x2="558.64" y2="415.529" gradientUnits="userSpaceOnUse">
<stop stop-color="white" stop-opacity="0"/>
<stop offset="0.637889" stop-color="#B7E5FF" stop-opacity="0.55"/>
</linearGradient>
<linearGradient id="paint2_linear" x1="502.652" y1="363.206" x2="493.241" y2="479.312" gradientUnits="userSpaceOnUse">
<stop stop-color="white" stop-opacity="0"/>
<stop offset="0.637889" stop-color="#B7E5FF" stop-opacity="0.55"/>
</linearGradient>
<linearGradient id="paint3_linear" x1="213.64" y1="181.703" x2="204.225" y2="297.827" gradientUnits="userSpaceOnUse">
<stop stop-color="white" stop-opacity="0"/>
<stop offset="0.637889" stop-color="#B7E5FF" stop-opacity="0.55"/>
</linearGradient>
<linearGradient id="paint4_linear" x1="268.179" y1="97.2265" x2="258.764" y2="213.354" gradientUnits="userSpaceOnUse">
<stop stop-color="white" stop-opacity="0"/>
<stop offset="0.637889" stop-color="#B7E5FF" stop-opacity="0.55"/>
</linearGradient>
<linearGradient id="paint5_linear" x1="412.469" y1="312.576" x2="339.122" y2="312.576" gradientUnits="userSpaceOnUse">
<stop stop-color="#59AFFF"/>
<stop offset="1" stop-color="#5E49FF"/>
</linearGradient>
<linearGradient id="paint6_linear" x1="372.123" y1="267.138" x2="392.082" y2="406.863" gradientUnits="userSpaceOnUse">
<stop offset="0.198565" stop-color="#345ACF" stop-opacity="0.02"/>
<stop offset="0.95" stop-color="#3652A5"/>
</linearGradient>
<linearGradient id="paint7_linear" x1="412.46" y1="286.949" x2="339.111" y2="286.949" gradientUnits="userSpaceOnUse">
<stop stop-color="#59C3FF"/>
<stop offset="1" stop-color="#4E74FF"/>
</linearGradient>
<linearGradient id="paint8_linear" x1="10683.6" y1="12404.2" x2="9964.48" y2="21262.5" gradientUnits="userSpaceOnUse">
<stop stop-color="#010101" stop-opacity="0"/>
<stop offset="0.95" stop-color="#010101"/>
</linearGradient>
<linearGradient id="paint9_linear" x1="378" y1="278" x2="446.996" y2="209.713" gradientUnits="userSpaceOnUse">
<stop stop-color="#70D3FF"/>
<stop offset="0.253125" stop-color="#7190FF"/>
<stop offset="1" stop-color="#3E51FF"/>
</linearGradient>
<linearGradient id="paint10_linear" x1="378" y1="278" x2="446.996" y2="209.713" gradientUnits="userSpaceOnUse">
<stop stop-color="#70D3FF"/>
<stop offset="0.253125" stop-color="#7190FF"/>
<stop offset="1" stop-color="#3E51FF"/>
</linearGradient>
<linearGradient id="paint11_linear" x1="378" y1="278" x2="446.996" y2="209.713" gradientUnits="userSpaceOnUse">
<stop stop-color="#70D3FF"/>
<stop offset="0.253125" stop-color="#7190FF"/>
<stop offset="1" stop-color="#3E51FF"/>
</linearGradient>
<linearGradient id="paint12_linear" x1="378" y1="278" x2="446.996" y2="209.713" gradientUnits="userSpaceOnUse">
<stop stop-color="#70D3FF"/>
<stop offset="0.253125" stop-color="#7190FF"/>
<stop offset="1" stop-color="#3E51FF"/>
</linearGradient>
<linearGradient id="paint13_linear" x1="587.55" y1="392.597" x2="553.443" y2="392.597" gradientUnits="userSpaceOnUse">
<stop stop-color="#5E49FF"/>
<stop offset="1" stop-color="#59AFFF"/>
</linearGradient>
<linearGradient id="paint14_linear" x1="16743.3" y1="7913.53" x2="16871.9" y2="9212.36" gradientUnits="userSpaceOnUse">
<stop stop-color="#010101" stop-opacity="0"/>
<stop offset="0.95" stop-color="#010101"/>
</linearGradient>
<linearGradient id="paint15_linear" x1="587.541" y1="380.638" x2="553.423" y2="380.638" gradientUnits="userSpaceOnUse">
<stop stop-color="#4E74FF"/>
<stop offset="1" stop-color="#59C3FF"/>
</linearGradient>
<linearGradient id="paint16_linear" x1="7818.82" y1="8548.29" x2="7663.52" y2="10464.2" gradientUnits="userSpaceOnUse">
<stop stop-color="white" stop-opacity="0"/>
<stop offset="0.95" stop-color="white"/>
</linearGradient>
<linearGradient id="paint17_linear" x1="520.347" y1="457.032" x2="486.229" y2="457.032" gradientUnits="userSpaceOnUse">
<stop stop-color="#5E49FF"/>
<stop offset="1" stop-color="#59AFFF"/>
</linearGradient>
<linearGradient id="paint18_linear" x1="14762.1" y1="9252.2" x2="14890.7" y2="10551.3" gradientUnits="userSpaceOnUse">
<stop stop-color="#010101" stop-opacity="0"/>
<stop offset="0.95" stop-color="#010101"/>
</linearGradient>
<linearGradient id="paint19_linear" x1="520.332" y1="445.086" x2="486.214" y2="445.086" gradientUnits="userSpaceOnUse">
<stop stop-color="#4E74FF"/>
<stop offset="1" stop-color="#59C3FF"/>
</linearGradient>
<linearGradient id="paint20_linear" x1="6896.65" y1="10031.6" x2="6741.35" y2="11947.5" gradientUnits="userSpaceOnUse">
<stop stop-color="white" stop-opacity="0"/>
<stop offset="0.95" stop-color="white"/>
</linearGradient>
<linearGradient id="paint21_linear" x1="287.759" y1="184.776" x2="253.64" y2="184.776" gradientUnits="userSpaceOnUse">
<stop stop-color="#59AFFF"/>
<stop offset="1" stop-color="#5E49FF"/>
</linearGradient>
<linearGradient id="paint22_linear" x1="7886.82" y1="3595.09" x2="8015.29" y2="4893.94" gradientUnits="userSpaceOnUse">
<stop stop-color="#010101" stop-opacity="0"/>
<stop offset="0.95" stop-color="#010101"/>
</linearGradient>
<linearGradient id="paint23_linear" x1="287.754" y1="172.833" x2="253.636" y2="172.833" gradientUnits="userSpaceOnUse">
<stop stop-color="#59C3FF"/>
<stop offset="1" stop-color="#4E74FF"/>
</linearGradient>
<linearGradient id="paint24_linear" x1="3705.55" y1="3764.24" x2="3550.25" y2="5680.14" gradientUnits="userSpaceOnUse">
<stop stop-color="white" stop-opacity="0"/>
<stop offset="0.95" stop-color="white"/>
</linearGradient>
<linearGradient id="paint25_linear" x1="232.572" y1="272.831" x2="198.452" y2="272.831" gradientUnits="userSpaceOnUse">
<stop stop-color="#59AFFF"/>
<stop offset="1" stop-color="#5E49FF"/>
</linearGradient>
<linearGradient id="paint26_linear" x1="6255.69" y1="5424.85" x2="6384.16" y2="6723.7" gradientUnits="userSpaceOnUse">
<stop stop-color="#010101" stop-opacity="0"/>
<stop offset="0.95" stop-color="#010101"/>
</linearGradient>
<linearGradient id="paint27_linear" x1="232.564" y1="260.887" x2="198.446" y2="260.887" gradientUnits="userSpaceOnUse">
<stop stop-color="#59C3FF"/>
<stop offset="1" stop-color="#4E74FF"/>
</linearGradient>
<linearGradient id="paint28_linear" x1="2975.27" y1="5778.25" x2="2828.75" y2="7694.68" gradientUnits="userSpaceOnUse">
<stop stop-color="white" stop-opacity="0"/>
<stop offset="0.95" stop-color="white"/>
</linearGradient>
<linearGradient id="paint29_linear" x1="105.764" y1="276.353" x2="71.6467" y2="276.353" gradientUnits="userSpaceOnUse">
<stop stop-color="#59AFFF"/>
<stop offset="1" stop-color="#5E49FF"/>
</linearGradient>
<linearGradient id="paint30_linear" x1="2506.79" y1="5498.97" x2="2635.32" y2="6798.29" gradientUnits="userSpaceOnUse">
<stop stop-color="#010101" stop-opacity="0"/>
<stop offset="0.95" stop-color="#010101"/>
</linearGradient>
<linearGradient id="paint31_linear" x1="105.764" y1="264.412" x2="71.6468" y2="264.412" gradientUnits="userSpaceOnUse">
<stop stop-color="#59C3FF"/>
<stop offset="1" stop-color="#4E74FF"/>
</linearGradient>
<linearGradient id="paint32_linear" x1="373.853" y1="108.619" x2="353.073" y2="363.513" gradientUnits="userSpaceOnUse">
<stop stop-color="white" stop-opacity="0"/>
<stop offset="0.637889" stop-color="#B7E5FF" stop-opacity="0.55"/>
</linearGradient>
</defs>
</svg>
